<svg id="visual" viewBox="0 0 960 300" width="960" height="300" xmlns="http://www.w3.org/2000/svg" xmlns:xlink="http://www.w3.org/1999/xlink" version="1.1"><rect x="0" y="0" width="960" height="300" fill="#202731"></rect><path d="M0 195L22.8 193.2C45.7 191.3 91.3 187.7 137 186C182.7 184.3 228.3 184.7 274 187.8C319.7 191 365.3 197 411.2 201.2C457 205.3 503 207.7 548.8 204.2C594.7 200.7 640.3 191.3 686 187C731.7 182.7 777.3 183.3 823 183.5C868.7 183.7 914.3 183.3 937.2 183.2L960 183L960 301L937.2 301C914.3 301 868.7 301 823 301C777.3 301 731.7 301 686 301C640.3 301 594.7 301 548.8 301C503 301 457 301 411.2 301C365.3 301 319.7 301 274 301C228.3 301 182.7 301 137 301C91.3 301 45.7 301 22.8 301L0 301Z" fill="#fa7268"></path><path d="M0 204L22.8 209.7C45.7 215.3 91.3 226.7 137 225.7C182.7 224.7 228.3 211.3 274 208.7C319.7 206 365.3 214 411.2 217.5C457 221 503 220 548.8 219.7C594.7 219.3 640.3 219.7 686 217.7C731.7 215.7 777.3 211.3 823 213.5C868.7 215.7 914.3 224.3 937.2 228.7L960 233L960 301L937.2 301C914.3 301 868.7 301 823 301C777.3 301 731.7 301 686 301C640.3 301 594.7 301 548.8 301C503 301 457 301 411.2 301C365.3 301 319.7 301 274 301C228.3 301 182.7 301 137 301C91.3 301 45.7 301 22.8 301L0 301Z" fill="#ef5f67"></path><path d="M0 230L22.8 233.5C45.7 237 91.3 244 137 244.7C182.7 245.3 228.3 239.7 274 236.7C319.7 233.7 365.3 233.3 411.2 235.2C457 237 503 241 548.8 244.7C594.7 248.3 640.3 251.7 686 248.2C731.7 244.7 777.3 234.3 823 231.8C868.7 229.3 914.3 234.7 937.2 237.3L960 240L960 301L937.2 301C914.3 301 868.7 301 823 301C777.3 301 731.7 301 686 301C640.3 301 594.7 301 548.8 301C503 301 457 301 411.2 301C365.3 301 319.7 301 274 301C228.3 301 182.7 301 137 301C91.3 301 45.7 301 22.8 301L0 301Z" fill="#e34c67"></path><path d="M0 256L22.8 254.5C45.7 253 91.3 250 137 250.7C182.7 251.3 228.3 255.7 274 256.5C319.7 257.3 365.3 254.7 411.2 256.2C457 257.7 503 263.3 548.8 263.7C594.7 264 640.3 259 686 256.2C731.7 253.3 777.3 252.7 823 254C868.7 255.3 914.3 258.7 937.2 260.3L960 262L960 301L937.2 301C914.3 301 868.7 301 823 301C777.3 301 731.7 301 686 301C640.3 301 594.7 301 548.8 301C503 301 457 301 411.2 301C365.3 301 319.7 301 274 301C228.3 301 182.7 301 137 301C91.3 301 45.7 301 22.8 301L0 301Z" fill="#d53867"></path><path d="M0 270L22.8 271.3C45.7 272.7 91.3 275.3 137 276.7C182.7 278 228.3 278 274 279.3C319.7 280.7 365.3 283.3 411.2 284.3C457 285.3 503 284.7 548.8 281.2C594.7 277.7 640.3 271.3 686 268.8C731.7 266.3 777.3 267.7 823 268.3C868.7 269 914.3 269 937.2 269L960 269L960 301L937.2 301C914.3 301 868.7 301 823 301C777.3 301 731.7 301 686 301C640.3 301 594.7 301 548.8 301C503 301 457 301 411.2 301C365.3 301 319.7 301 274 301C228.3 301 182.7 301 137 301C91.3 301 45.7 301 22.8 301L0 301Z" fill="#c62368"></path></svg>